<?xml version="1.0" encoding="UTF-8" standalone="no"?>
<!-- Created with Inkscape (http://www.inkscape.org/) -->

<svg
   xmlns:dc="http://purl.org/dc/elements/1.1/"
   xmlns:cc="http://creativecommons.org/ns#"
   xmlns:rdf="http://www.w3.org/1999/02/22-rdf-syntax-ns#"
   xmlns:svg="http://www.w3.org/2000/svg"
   xmlns="http://www.w3.org/2000/svg"
   xmlns:sodipodi="http://sodipodi.sourceforge.net/DTD/sodipodi-0.dtd"
   xmlns:inkscape="http://www.inkscape.org/namespaces/inkscape"
   width="64.055588mm"
   height="25.553593mm"
   viewBox="0 0 226.96861 90.544225"
   id="svg4296"
   version="1.1"
   inkscape:version="0.91 r13725"
   sodipodi:docname="hostedinspace.svg">
  <defs
     id="defs4298" />
  <sodipodi:namedview
     id="base"
     pagecolor="#ffffff"
     bordercolor="#666666"
     borderopacity="1.0"
     inkscape:pageopacity="0.0"
     inkscape:pageshadow="2"
     inkscape:zoom="3.959798"
     inkscape:cx="118.75447"
     inkscape:cy="54.358086"
     inkscape:document-units="px"
     inkscape:current-layer="layer1"
     showgrid="false"
     fit-margin-top="1"
     fit-margin-left="1"
     fit-margin-right="1"
     fit-margin-bottom="1"
     inkscape:window-width="3440"
     inkscape:window-height="1411"
     inkscape:window-x="0"
     inkscape:window-y="0"
     inkscape:window-maximized="1" />
  <metadata
     id="metadata4301">
    <rdf:RDF>
      <cc:Work
         rdf:about="">
        <dc:format>image/svg+xml</dc:format>
        <dc:type
           rdf:resource="http://purl.org/dc/dcmitype/StillImage" />
        <dc:title></dc:title>
      </cc:Work>
    </rdf:RDF>
  </metadata>
  <g
     inkscape:label="Ebene 1"
     inkscape:groupmode="layer"
     id="layer1"
     transform="translate(667.77002,-698.51868)">
    <path
       id="path4955"
       d="m -660.38064,702.45209 c -2.13087,0 -3.84607,1.7152 -3.84607,3.84606 l 0,17.18034 c 0,2.13087 1.7152,3.84651 3.84607,3.84651 l 29.46218,0 c 0.0818,-0.0877 0.16267,-0.17644 0.24488,-0.26378 0.53141,-0.56142 1.07213,-1.11395 1.62322,-1.65475 0.55487,-0.53705 1.1264,-1.05877 1.71688,-1.56021 2.36565,-2.00386 5.03552,-3.70419 8.05717,-5.05291 3.02649,-1.34496 6.39934,-2.34212 10.24492,-2.86699 0.9635,-0.12934 1.9616,-0.22402 2.98134,-0.29619 1.03567,-0.0572 2.08332,-0.10234 3.1902,-0.0873 1.10409,0.0112 2.24398,0.0593 3.44273,0.1661 l 0.44878,0.0414 c 0.15184,0.0141 0.30999,0.0344 0.46365,0.0531 l 0.93047,0.11074 0.96512,0.1472 c 0.0759,0.0103 0.15352,0.0246 0.23317,0.0396 l 4.81883,-4.33627 c 0.31587,-0.28399 0.80042,-0.25734 1.08441,0.0585 0.26431,0.29336 0.25774,0.73946 0,1.02813 l -4.33492,4.81839 c 0.015,0.0787 0.027,0.15733 0.0383,0.23137 l 0.14854,0.96782 0.10938,0.9291 c 0.0187,0.15372 0.0386,0.31324 0.0536,0.46321 l 0.0423,0.4497 c 0.10591,1.19875 0.15299,2.33957 0.16521,3.44272 0.0159,1.10287 -0.0293,2.1419 -0.0869,3.17129 l 9.49562,0 c 2.13086,0 3.8465,-1.71564 3.8465,-3.84651 l 0,-17.18034 c 0,-2.13086 -1.71564,-3.84606 -3.8465,-3.84606 z m 41.84169,6.23185 -0.31287,1.39051 0.76391,1.03488 -1.39096,-0.31285 -1.03442,0.7639 0.31284,-1.39096 -0.76391,-1.03444 1.39097,0.31286 z m -22.49659,6.98449 -0.41368,1.8411 1.01103,1.36935 -1.84111,-0.41413 -1.36934,1.01103 0.41368,-1.84066 -1.01103,-1.3698 1.84111,0.41414 z m 51.94769,2.56089 -0.31285,1.39096 0.76391,1.03443 -1.39096,-0.31285 -1.03445,0.7639 0.31287,-1.39095 -0.76391,-1.03444 1.39097,0.31285 z m -19.5105,7.43329 c -2.33854,-1.1e-4 -4.23439,1.89555 -4.23453,4.23409 -1.1e-4,2.33871 1.89583,4.23465 4.23453,4.23454 2.33854,-1.4e-4 4.23421,-1.896 4.23409,-4.23454 -1.4e-4,-2.33837 -1.89573,-4.23396 -4.23409,-4.23409 z m -51.78229,5.67141 c -2.13087,0 -3.84607,1.7152 -3.84607,3.84606 l 0,17.18034 c 0,2.13086 1.7152,3.84651 3.84607,3.84651 l 13.80152,0 c 0.76078,-3.24633 1.7497,-6.26335 2.90752,-9.11189 l -2.31782,-1.27752 -13.13891,4.83594 c -0.10777,0.0403 -0.21921,0.0677 -0.33355,0.0846 -0.51831,0.0675 -1.05041,-0.11184 -1.42157,-0.48301 -0.32898,-0.33085 -0.79945,-1.06423 -0.25209,-2.2836 0.23432,-0.52297 0.6748,-1.19778 1.34775,-2.06663 1.69362,-2.18476 4.86444,-5.60491 9.42608,-10.16749 1.91461,-1.91459 3.88446,-3.38904 5.87803,-4.40334 z m 65.59599,0 c -0.55365,3.43038 -1.48902,6.47711 -2.71664,9.23568 -1.34778,3.02173 -3.04809,5.69014 -5.05383,8.05765 -0.5005,0.59142 -1.0213,1.16104 -1.5593,1.71686 -0.53985,0.55109 -1.09329,1.09134 -1.65565,1.62278 -1.06848,1.00568 -2.16333,1.98266 -3.29552,2.92461 0.14068,0.4234 0.26269,0.86299 0.36461,1.31533 l 23.85939,0 c 2.13086,0 3.8465,-1.71565 3.8465,-3.84651 l 0,-17.18034 c 0,-2.13086 -1.71564,-3.84606 -3.8465,-3.84606 z m -25.00707,5.53322 c -2.33096,-1e-5 -4.22059,1.89101 -4.22059,4.22103 0,2.33002 1.88963,4.21924 4.22059,4.21924 2.33096,0 4.22015,-1.88829 4.22015,-4.21924 0,-2.33096 -1.88919,-4.22104 -4.22015,-4.22103 z m 36.378,12.32639 -0.41369,1.8411 1.01103,1.3698 -1.84111,-0.41413 -1.36934,1.01103 0.41368,-1.8411 -1.01103,-1.36935 1.84111,0.41368 z m -76.96692,11.02232 c -2.13087,0 -3.84607,1.71519 -3.84607,3.84606 l 0,17.18033 c 0,0.44599 0.0791,0.87174 0.21743,1.26942 l 16.1162,-17.72051 -0.77876,-0.77966 2.5897,-3.79564 z m 51.96416,0 c -0.0969,1.20168 -0.3556,2.40316 -0.77742,3.59578 -0.94287,2.66368 -2.71046,5.30105 -5.25231,7.84382 -4.5607,4.56164 -7.98183,7.73245 -10.16658,9.42609 -0.86884,0.6739 -1.54409,1.11389 -2.06709,1.3482 -1.21843,0.54737 -1.95413,0.0765 -2.28406,-0.25254 -0.37113,-0.37114 -0.5501,-0.90412 -0.48075,-1.42337 0.0159,-0.11339 0.0426,-0.22398 0.0819,-0.33175 l 4.83863,-13.13982 -1.27843,-2.31871 c -3.04608,1.23717 -6.28131,2.28759 -9.78666,3.06551 -0.72542,0.164 -1.46447,0.31376 -2.21427,0.4506 l -1.1114,-1.11277 -3.80241,2.59826 -1.13438,-1.13438 -17.95099,15.9852 c 0.43989,0.17435 0.91863,0.27279 1.42202,0.27279 l 75.53905,0 c 2.13086,0 3.8465,-1.71565 3.8465,-3.84652 l 0,-17.18033 c 0,-2.13087 -1.71564,-3.84606 -3.8465,-3.84606 z m -38.64698,5.40177 -15.11911,16.6271 15.87175,-15.8722 z m 1.58092,1.58317 -13.83439,13.83484 14.6397,-13.03088 z m 39.69795,4.22689 -0.1859,0.82782 0.45464,0.6158 -0.82783,-0.18591 -0.61624,0.45465 0.18636,-0.82827 -0.45466,-0.61581 0.82782,0.18637 z m 16.46403,5.70382 -0.31285,1.39095 0.76389,1.03444 -1.39094,-0.31285 -1.03445,0.7639 0.31285,-1.39096 -0.76391,-1.03443 1.3905,0.31285 z m -44.14844,0.34931 -0.4137,1.84111 1.01105,1.36935 -1.84111,-0.41414 -1.36981,1.01103 0.41414,-1.84065 -1.01102,-1.3698 1.8411,0.41413 z"
       style="opacity:0.75;fill:#000000;fill-opacity:1;fill-rule:nonzero;stroke:none;stroke-width:6;stroke-linecap:round;stroke-linejoin:round;stroke-miterlimit:4;stroke-dasharray:none;stroke-dashoffset:0;stroke-opacity:1"
       inkscape:connector-curvature="0"
       sodipodi:nodetypes="sssscccccccccccccccccccccccccsssssccccccccccccccccccccccccccccscscssssccccccccccscccccccsssscssssscccccccccsssccccsccccccccccccccccssssscccccccccccccccccccccccccccccccccccc"
       inkscape:export-filename="/home/m/text4973.png"
       inkscape:export-xdpi="72"
       inkscape:export-ydpi="72" />
    <g
       style="font-style:normal;font-variant:normal;font-weight:900;font-stretch:normal;font-size:37.13192749px;line-height:125%;font-family:Titillium;-inkscape-font-specification:'Titillium, Heavy';text-align:start;letter-spacing:0px;word-spacing:0px;writing-mode:lr-tb;text-anchor:start;opacity:0.75;fill:#000000;fill-opacity:1;stroke:none;stroke-width:1px;stroke-linecap:butt;stroke-linejoin:miter;stroke-opacity:1"
       id="text4965">
      <path
         d="m -563.5324,727.4231 8.61461,0 0,-24.8784 -8.61461,0 0,9.17159 -4.86428,0 0,-9.17159 -8.61461,0 0,24.8784 8.61461,0 0,-8.68888 4.86428,0 0,8.68888 z"
         id="path4863"
         inkscape:connector-curvature="0" />
      <path
         d="m -541.39075,720.92501 c -2.74776,0 -3.15621,-2.11652 -3.15621,-5.94111 0,-3.82459 0.40845,-5.94111 3.15621,-5.94111 2.85916,0 3.15622,2.11652 3.15622,5.94111 0,3.78746 -0.33419,5.94111 -3.15622,5.94111 z m 0,6.9808 c 8.28042,0 11.84509,-3.86172 11.84509,-12.92191 0,-9.06019 -3.56467,-12.92191 -11.84509,-12.92191 -8.28041,0 -11.84508,3.86172 -11.84508,12.92191 0,9.06019 3.67606,12.92191 11.84508,12.92191 z"
         id="path4865"
         inkscape:connector-curvature="0" />
      <path
         d="m -508.68042,703.02742 c 0,0 -5.86684,-0.96543 -9.83996,-0.96543 -6.1639,0 -9.83996,1.6338 -9.83996,8.726 0,5.19847 1.96799,7.12933 8.94879,8.20616 2.59924,0.40845 2.85916,0.48271 2.85916,1.00256 0,0.59411 -0.44558,0.85403 -1.93086,0.85403 -3.63893,0 -9.32011,-0.8169 -9.32011,-0.8169 l -0.37132,6.57235 c 0,0 5.16134,1.33675 10.4712,1.33675 6.34956,0 9.83996,-2.19078 9.83996,-8.54034 0,-5.82971 -2.07939,-6.75801 -9.17158,-8.35468 -2.37645,-0.51985 -2.63637,-0.70551 -2.63637,-1.22536 0,-0.51984 0.37132,-0.66837 1.89373,-0.66837 3.63893,0 8.87453,0.55698 8.87453,0.55698 l 0.22279,-6.68375 z"
         id="path4867"
         inkscape:connector-curvature="0" />
      <path
         d="m -507.37094,709.56264 5.12421,0 0,17.86046 8.61461,0 0,-17.86046 4.82715,0 0,-7.01794 -18.56597,0 0,7.01794 z"
         id="path4869"
         inkscape:connector-curvature="0" />
      <path
         d="m -487.29997,727.4231 18.64023,0 0,-6.86941 -10.02562,0 0,-2.22792 7.7977,0 0,-6.79514 -7.7977,0 0,-2.11652 10.02562,0 0,-6.86941 -18.64023,0 0,24.8784 z"
         id="path4871"
         inkscape:connector-curvature="0" />
      <path
         d="m -456.04127,727.4231 c 8.65174,0 11.69656,-4.5301 11.69656,-12.81052 0,-8.28042 -3.41614,-12.06788 -12.06788,-12.06788 l -10.50833,0 0,24.8784 10.87965,0 z m 3.00769,-12.81052 c 0,3.63893 -0.22279,5.79258 -3.75033,5.79258 l -1.52241,0 0,-10.84252 1.52241,0 c 3.34188,0 3.75033,1.59667 3.75033,5.04994 z"
         id="path4873"
         inkscape:connector-curvature="0" />
    </g>
    <g
       style="font-style:normal;font-variant:normal;font-weight:900;font-stretch:normal;font-size:37.13192749px;line-height:125%;font-family:Titillium;-inkscape-font-specification:'Titillium, Heavy';text-align:start;letter-spacing:0px;word-spacing:0px;writing-mode:lr-tb;text-anchor:start;opacity:0.75;fill:#000000;fill-opacity:1;stroke:none;stroke-width:1px;stroke-linecap:butt;stroke-linejoin:miter;stroke-opacity:1"
       id="text4969">
      <path
         d="m -577.01129,756.13062 8.61461,0 0,-24.8784 -8.61461,0 0,24.8784 z"
         id="path4876"
         inkscape:connector-curvature="0" />
      <path
         d="m -566.13279,756.13062 8.61461,0 0,-10.13702 0.55697,0 5.64406,10.13702 8.50321,0 0,-24.8784 -8.61461,0 0,9.43151 -0.51985,0 -5.71831,-9.43151 -8.46608,0 0,24.8784 z"
         id="path4878"
         inkscape:connector-curvature="0" />
    </g>
    <g
       style="font-style:normal;font-variant:normal;font-weight:900;font-stretch:normal;font-size:14.22729588px;line-height:125%;font-family:Titillium;-inkscape-font-specification:'Titillium, Heavy';text-align:start;letter-spacing:0px;word-spacing:0px;writing-mode:lr-tb;text-anchor:start;opacity:0.75;fill:#000000;fill-opacity:1;stroke:none;stroke-width:1px;stroke-linecap:butt;stroke-linejoin:miter;stroke-opacity:1"
       id="text4973">
      <path
         d="m -557.33138,760.60408 c 0,0 -5.86684,-0.96543 -9.83996,-0.96543 -6.1639,0 -9.83996,1.6338 -9.83996,8.726 0,5.19847 1.968,7.12933 8.9488,8.20616 2.59923,0.40845 2.85916,0.48271 2.85916,1.00256 0,0.59411 -0.44559,0.85403 -1.93086,0.85403 -3.63893,0 -9.32012,-0.8169 -9.32012,-0.8169 l -0.37132,6.57235 c 0,0 5.16134,1.33675 10.47121,1.33675 6.34956,0 9.83996,-2.19078 9.83996,-8.54034 0,-5.82971 -2.07939,-6.75801 -9.17159,-8.35468 -2.37644,-0.51985 -2.63637,-0.70551 -2.63637,-1.22536 0,-0.51984 0.37132,-0.66837 1.89373,-0.66837 3.63893,0 8.87453,0.55698 8.87453,0.55698 l 0.22279,-6.68375 z"
         style="font-size:37.13192749px"
         id="path4881"
         inkscape:connector-curvature="0" />
      <path
         d="m -545.25886,779.72702 c 7.42639,0 11.28811,-2.07939 11.28811,-9.91422 0,-7.83484 -3.89885,-9.69144 -11.28811,-9.69144 l -9.76569,0 0,24.8784 8.6146,0 0,-5.27274 1.15109,0 z m -1.15109,-6.79514 0,-6.01537 0.77977,0 c 2.15366,0 2.97056,0.55698 2.97056,2.93342 0,2.26505 -0.85404,3.08195 -2.97056,3.08195 l -0.77977,0 z"
         style="font-size:37.13192749px"
         id="path4883"
         inkscape:connector-curvature="0" />
      <path
         d="m -535.07485,784.99976 8.46608,0 0.59411,-2.85916 5.68119,0 0.70551,2.85916 8.68887,0 -5.60692,-24.8784 -13.03331,0 -5.49553,24.8784 z m 11.58516,-18.12038 0.9283,0 1.33675,8.68887 -3.67606,0 1.41101,-8.68887 z"
         style="font-size:37.13192749px"
         id="path4885"
         inkscape:connector-curvature="0" />
      <path
         d="m -492.59418,777.98182 c 0,0 -3.15622,0.22279 -5.79258,0.22279 -3.26761,0 -4.01025,-0.7055 -4.01025,-5.71831 0,-4.90142 0.70551,-5.56979 4.01025,-5.56979 2.63636,0 5.68118,0.37132 5.68118,0.37132 l 0.22279,-6.64662 c 0,0 -4.82715,-1.00256 -7.61204,-1.00256 -8.61461,0 -10.99105,3.04482 -10.99105,12.84765 0,10.09988 2.4507,12.99617 10.61973,12.99617 4.04738,0 7.98336,-0.96543 7.98336,-0.96543 l -0.11139,-6.53522 z"
         style="font-size:37.13192749px"
         id="path4887"
         inkscape:connector-curvature="0" />
      <path
         d="m -490.84144,784.99976 18.64023,0 0,-6.86941 -10.02562,0 0,-2.22792 7.7977,0 0,-6.79514 -7.7977,0 0,-2.11652 10.02562,0 0,-6.86941 -18.64023,0 0,24.8784 z"
         style="font-size:37.13192749px"
         id="path4889"
         inkscape:connector-curvature="0" />
    </g>
  </g>
</svg>
